<svg xmlns:xlink="http://www.w3.org/1999/xlink" xmlns="http://www.w3.org/2000/svg" viewBox="0 0 24 24" id="loading-bird-anim-1" aria-hidden="true" class="r-1p0dtai r-13gxpu9 r-4qtqp9 r-yyyyoo r-wy61xf r-1d2f490 r-1et2o r-ywje51 r-dnmrzs r-u8s1d r-zchlnj r-1plcrui r-ipm5af r-lrvibr r-1blnp2b" width="72"  height="72" ><g fill="#1DA1F2"><path d="M23.643 4.937c-.835.37-1.732.62-2.675.733.962-.576 1.7-1.49 2.048-2.578-.9.534-1.897.922-2.958 1.13-.85-.904-2.06-1.47-3.4-1.47-2.572 0-4.658 2.086-4.658 4.66 0 .364.042.718.12 1.06-3.873-.195-7.304-2.05-9.602-4.868-.4.69-.63 1.49-.63 2.342 0 1.616.823 3.043 2.072 3.878-.764-.025-1.482-.234-2.11-.583v.06c0 2.257 1.605 4.14 3.737 4.568-.392.106-.803.162-1.227.162-.3 0-.593-.028-.877-.082.593 1.85 2.313 3.198 4.352 3.234-1.595 1.25-3.604 1.995-5.786 1.995-.376 0-.747-.022-1.112-.065 2.062 1.323 4.51 2.093 7.14 2.093 8.57 0 13.255-7.098 13.255-13.254 0-.2-.005-.402-.014-.602.91-.658 1.7-1.477 2.323-2.41z" fill="#1DA1F2"></path><path d="M 10,30 C 249,229 69,119 219,70 h 84 s 29,234 48,244 C 207,243 100,93 199,231 h 166 s 188,55 140,202 C 42,77 170,83 191,90 h 135 s 87,108 107,14 C 181,166 125,186 59,176 h 3 s 82,222 234,230 C 196,57 59,186 128,52 h 19 s 7,194 78,247 C 234,240 25,60 30,197 h 0 s 12,131 198,15 C 71,220 175,164 216,238 h 48 s 12,52 91,253 C 63,171 100,113 80,149 h 109 s 21,73 205,64 C 30,179 222,140 118,9 h 82 s 112,134 176,130 C 55,63 85,42 94,37 h 163 s 10,20 201,92 C 170,52 76,136 233,8 h 40 s 42,49 145,106 C 12,96 153,241 116,69 h 202 s 1,160 247,170 C 136,90 197,133 1,186 h 182 s 238,6 151,42 C 68,121 91,208 25,137 h 193 s 254,21 65,99 C 61,75 94,117 79,94 h 112 s 19,208 180,58 C 190,226 125,249 227,116 h 233 s 6,55 144,160" fill="#1D9BF0" fill-opacity="0.03"></path></g></svg>