<svg xmlns:xlink="http://www.w3.org/1999/xlink" xmlns="http://www.w3.org/2000/svg" viewBox="0 0 24 24" id="loading-bird-anim-2" aria-hidden="true" class="r-1p0dtai r-13gxpu9 r-4qtqp9 r-yyyyoo r-wy61xf r-1d2f490 r-1et2o r-ywje51 r-dnmrzs r-u8s1d r-zchlnj r-1plcrui r-ipm5af r-lrvibr r-1blnp2b" width="72"  height="72" ><g fill="#1DA1F2"><path d="M23.643 4.937c-.835.37-1.732.62-2.675.733.962-.576 1.7-1.49 2.048-2.578-.9.534-1.897.922-2.958 1.13-.85-.904-2.06-1.47-3.4-1.47-2.572 0-4.658 2.086-4.658 4.66 0 .364.042.718.12 1.06-3.873-.195-7.304-2.05-9.602-4.868-.4.69-.63 1.49-.63 2.342 0 1.616.823 3.043 2.072 3.878-.764-.025-1.482-.234-2.11-.583v.06c0 2.257 1.605 4.14 3.737 4.568-.392.106-.803.162-1.227.162-.3 0-.593-.028-.877-.082.593 1.85 2.313 3.198 4.352 3.234-1.595 1.25-3.604 1.995-5.786 1.995-.376 0-.747-.022-1.112-.065 2.062 1.323 4.51 2.093 7.14 2.093 8.57 0 13.255-7.098 13.255-13.254 0-.2-.005-.402-.014-.602.91-.658 1.7-1.477 2.323-2.41z" fill="#1DA1F2"></path><path d="M 10,30 C 115,246 73,157 238,137 h 108 s 241,201 172,120 C 191,156 250,123 36,124 h 121 s 28,195 80,232 C 211,44 122,162 80,163 h 206 s 218,201 160,219 C 102,117 143,224 21,9 h 149 s 222,113 70,91 C 19,20 124,91 151,221 h 43 s 105,159 198,179 C 49,39 191,41 165,199 h 252 s 175,251 193,1 C 62,224 18,231 0,84 h 193 s 4,18 211,61 C 252,135 225,140 220,71 h 117 s 59,126 176,205 C 15,2 97,242 252,216 h 161 s 113,128 152,70 C 19,196 250,170 206,67 h 188 s 188,194 164,83 C 94,20 127,95 19,206 h 195 s 163,114 165,115 C 119,144 185,2 227,23 h 196 s 220,125 201,199 C 2,15 67,26 55,16 h 136 s 99,184 246,53 C 85,9 28,238 116,116 h 108 s 54,35 240,63 C 223,205 19,226 146,134 h 125 s 165,217 17,119 C 23,232 63,97 113,36 h 28 s 67,228 23,247" fill="#1D9BF0" fill-opacity="0.03"></path></g></svg>