<svg xmlns:xlink="http://www.w3.org/1999/xlink" xmlns="http://www.w3.org/2000/svg" viewBox="0 0 24 24" id="loading-bird-anim-3" aria-hidden="true" class="r-1p0dtai r-13gxpu9 r-4qtqp9 r-yyyyoo r-wy61xf r-1d2f490 r-1et2o r-ywje51 r-dnmrzs r-u8s1d r-zchlnj r-1plcrui r-ipm5af r-lrvibr r-1blnp2b" width="72"  height="72" ><g fill="#1DA1F2"><path d="M23.643 4.937c-.835.37-1.732.62-2.675.733.962-.576 1.7-1.49 2.048-2.578-.9.534-1.897.922-2.958 1.13-.85-.904-2.06-1.47-3.4-1.47-2.572 0-4.658 2.086-4.658 4.66 0 .364.042.718.12 1.06-3.873-.195-7.304-2.05-9.602-4.868-.4.69-.63 1.49-.63 2.342 0 1.616.823 3.043 2.072 3.878-.764-.025-1.482-.234-2.11-.583v.06c0 2.257 1.605 4.14 3.737 4.568-.392.106-.803.162-1.227.162-.3 0-.593-.028-.877-.082.593 1.85 2.313 3.198 4.352 3.234-1.595 1.25-3.604 1.995-5.786 1.995-.376 0-.747-.022-1.112-.065 2.062 1.323 4.51 2.093 7.14 2.093 8.57 0 13.255-7.098 13.255-13.254 0-.2-.005-.402-.014-.602.91-.658 1.7-1.477 2.323-2.41z" fill="#1DA1F2"></path><path d="M 10,30 C 193,53 177,196 58,213 h 82 s 34,67 216,138 C 103,32 17,90 197,51 h 91 s 25,63 176,174 C 186,120 163,82 198,95 h 48 s 16,8 219,93 C 188,68 230,75 208,144 h 138 s 66,48 144,25 C 136,107 42,218 229,133 h 149 s 168,130 91,25 C 36,196 88,45 207,79 h 211 s 165,221 85,198 C 89,169 233,193 52,187 h 153 s 13,142 217,218 C 12,71 155,44 97,84 h 41 s 51,124 61,70 C 236,247 156,79 225,168 h 40 s 133,29 254,176 C 17,154 39,149 245,198 h 245 s 188,204 33,17 C 67,206 219,120 46,90 h 221 s 209,167 16,150 C 2,149 112,76 93,219 h 203 s 140,58 119,49 C 47,214 128,101 241,139 h 107 s 232,160 243,51 C 15,184 215,139 178,58 h 74 s 35,13 37,148 C 80,253 229,118 89,183 h 92 s 124,158 186,245 C 70,255 122,230 219,81 h 164 s 156,210 103,17" fill="#1D9BF0" fill-opacity="0.03"></path></g></svg>